<svg xmlns="http://www.w3.org/2000/svg" xmlns:xlink="http://www.w3.org/1999/xlink"><symbol id="eye-hidden" viewBox="0 0 24 24">
<path d="M12.0001 19C11.1581 19 10.3151 18.822 9.49609 18.505" stroke="currentColor" stroke-width="1.5" stroke-linecap="round" stroke-linejoin="round" fill="none"/>
<path d="M20.882 12.468C18.99 15.967 15.495 19 12 19" stroke="currentColor" stroke-width="1.5" stroke-linecap="round" stroke-linejoin="round" fill="none"/>
<path d="M19.0791 8.92099C19.7701 9.72999 20.3841 10.612 20.8821 11.533C21.0391 11.824 21.0391 12.177 20.8821 12.468" stroke="currentColor" stroke-width="1.5" stroke-linecap="round" stroke-linejoin="round" fill="none"/>
<path d="M5 19L19 5" stroke="currentColor" stroke-width="1.5" stroke-linecap="round" stroke-linejoin="round" fill="none"/>
<path d="M9.77309 14.227C8.54309 12.997 8.54309 11.002 9.77309 9.77199C11.0031 8.54199 12.9981 8.54199 14.2281 9.77199" stroke="currentColor" stroke-width="1.5" stroke-linecap="round" stroke-linejoin="round" fill="none"/>
<path d="M17.044 6.956C15.497 5.759 13.748 5 12 5C8.50499 5 5.00999 8.033 3.11799 11.533C2.96099 11.824 2.96099 12.177 3.11799 12.468C4.06399 14.217 5.40999 15.849 6.95599 17.045" stroke="currentColor" stroke-width="1.5" stroke-linecap="round" stroke-linejoin="round" fill="none"/>
</symbol><symbol id="eye-shown" viewBox="0 0 24 24">
<path fill-rule="evenodd" clip-rule="evenodd" d="M3.11799 12.467C2.96099 12.176 2.96099 11.823 3.11799 11.532C5.00999 8.033 8.50499 5 12 5C15.495 5 18.99 8.033 20.882 11.533C21.039 11.824 21.039 12.177 20.882 12.468C18.99 15.967 15.495 19 12 19C8.50499 19 5.00999 15.967 3.11799 12.467Z" stroke="currentColor" stroke-width="1.5" stroke-linecap="round" stroke-linejoin="round" fill="none"/>
<path d="M14.1213 9.87868C15.2929 11.0502 15.2929 12.9497 14.1213 14.1213C12.9497 15.2929 11.0502 15.2929 9.87868 14.1213C8.70711 12.9497 8.70711 11.0502 9.87868 9.87868C11.0502 8.70711 12.9497 8.70711 14.1213 9.87868" stroke="currentColor" stroke-width="1.5" stroke-linecap="round" stroke-linejoin="round" fill="none"/>
</symbol><symbol id="search" viewBox="0 0 24 24">
<path d="M15.7138 6.8382C18.1647 9.28913 18.1647 13.2629 15.7138 15.7138C13.2629 18.1647 9.28913 18.1647 6.8382 15.7138C4.38727 13.2629 4.38727 9.28913 6.8382 6.8382C9.28913 4.38727 13.2629 4.38727 15.7138 6.8382" stroke="currentColor" stroke-width="1.5" stroke-linecap="round" stroke-linejoin="round" fill="none"/>
<path d="M19 19L15.71 15.71" stroke="currentColor" stroke-width="1.5" stroke-linecap="round" stroke-linejoin="round" fill="none"/>
</symbol></svg>